<svg xmlns="http://www.w3.org/2000/svg" width="25.431" height="22.595" viewBox="0 0 25.431 22.595"><path d="M10.171,26.589A15.63,15.63,0,0,0,26.323,11.058a11.422,11.422,0,0,0,2.09-4.01.621.621,0,0,0-.875-.72,2.654,2.654,0,0,1-3.05-.537,5.492,5.492,0,0,0-7.878-.24,5.831,5.831,0,0,0-1.624,5.506c-4.73.282-7.977-1.963-10.575-5.04a.607.607,0,0,0-1.059.339,13.667,13.667,0,0,0,6.495,14.19,9.5,9.5,0,0,1-6.311,3.219.635.635,0,0,0-.2,1.186,15.531,15.531,0,0,0,6.834,1.638" transform="translate(-3.004 -4.003)" fill="#fff"/></svg>