<svg xmlns="http://www.w3.org/2000/svg" width="26.834" height="26.834" viewBox="0 0 26.834 26.834"><g transform="translate(0 0)"><path d="M18.841,0H7.993A8,8,0,0,0,0,7.993V18.841a8,8,0,0,0,7.993,7.993H18.841a8,8,0,0,0,7.993-7.993V7.993A8,8,0,0,0,18.841,0Zm5.3,18.841a5.3,5.3,0,0,1-5.3,5.3H7.993a5.3,5.3,0,0,1-5.3-5.3V7.993a5.3,5.3,0,0,1,5.3-5.3H18.841a5.3,5.3,0,0,1,5.3,5.3Z" fill="#fff"/><path d="M396.5,309.5" transform="translate(-372.362 -290.659)" fill="#fff"/><path d="M113.34,106.4a6.94,6.94,0,1,0,6.94,6.94A6.94,6.94,0,0,0,113.34,106.4Zm0,11.183a4.243,4.243,0,1,1,4.243-4.243A4.243,4.243,0,0,1,113.34,117.583Zm0,0" transform="translate(-99.923 -99.923)" fill="#fff"/><path d="M310.724,81.662A1.662,1.662,0,1,1,309.062,80,1.662,1.662,0,0,1,310.724,81.662Zm0,0" transform="translate(-288.687 -75.13)" fill="#fff"/></g></svg>