<svg xmlns="http://www.w3.org/2000/svg" width="15.531" height="25.423" viewBox="0 0 15.531 25.423"><path d="M21.531,3.708A.706.706,0,0,0,20.825,3H17.3a6.735,6.735,0,0,0-7.06,6.354v3.812H6.706A.706.706,0,0,0,6,13.874v3.671a.706.706,0,0,0,.706.706h3.53v9.46a.706.706,0,0,0,.706.706h4.236a.706.706,0,0,0,.706-.706v-9.46h3.7a.706.706,0,0,0,.692-.522l1.017-3.671a.706.706,0,0,0-.678-.89h-4.73V9.356A1.412,1.412,0,0,1,17.3,8.085h3.53a.706.706,0,0,0,.706-.706Z" transform="translate(-6 -2.994)" fill="#fff"/></svg>