<svg xmlns="http://www.w3.org/2000/svg" width="34" height="34" viewBox="0 0 34 34"><g transform="translate(-0.281 -0.121)"><rect width="34" height="34" transform="translate(34.281 34.121) rotate(180)" fill="#fff" opacity="0"/><path d="M17.56,8.4A8.231,8.231,0,0,0,9.3,16.617v8.3a1.271,1.271,0,0,0,1.271,1.271h2.965a1.271,1.271,0,0,0,1.271-1.271v-8.3a2.739,2.739,0,0,1,3.036-2.725,2.824,2.824,0,0,1,2.471,2.824v8.2a1.271,1.271,0,0,0,1.271,1.271h2.965a1.271,1.271,0,0,0,1.271-1.271v-8.3A8.231,8.231,0,0,0,17.56,8.4Z" transform="translate(3.831 3.46)" fill="#fff"/><rect width="6.354" height="16.519" rx="0.9" transform="translate(4.236 13.131)" fill="#fff"/><circle cx="3.177" cy="3.177" r="3.177" transform="translate(4.236 4.236)" fill="#fff"/></g></svg>